<svg xmlns="http://www.w3.org/2000/svg" viewBox="0 0 583.01 453.5"><defs><style>.cls-1{fill:#c8c2c2;}.cls-2{fill:#141414;}.cls-3{fill:#e3e0e0;}.cls-4{fill:#3b3333;}</style></defs><title>logo2</title><g id="Layer_2" data-name="Layer 2"><g id="Layer_1-2" data-name="Layer 1"><polygon class="cls-1" points="216.78 233.86 215.5 207 209.5 202 211.5 183 209.5 175 203.83 169 203.5 169 198.72 170.07 195.94 183.5 197.31 202.5 201.99 217.5 204.15 232.88 207.17 248.64 215.5 249 217.65 255.5 217.65 255.5 216.78 233.86"/><path class="cls-1" d="M442.5,185l-3,33h-6l-5,47-.9,1.91L438.5,264l4.33-12.45L442.5,241l8.17-18.79,1.28-11.6,3.62-9.65,2-11.46-.88-4.8-4.23-1.46L448,183l-.15,1.63Z"/><path class="cls-2" d="M582,446.5a20.62,20.62,0,0,0-6-9,16.44,16.44,0,0,0-8-17l-12-12-35-18c-4.78-4.24-10.1-8.62-16-13-4.46-3.31-8.81-6.3-13-9a46.14,46.14,0,0,0-11-9c-3.2-1.86-5.91-2.87-11-6-2.6-1.6-4.66-3-6-4-3.67-2-14.15-11.25-16-14q-2.52-3.75-5-7c-.78-.65-1.78-1.46-3-2.35,1.64,39.47-36.56,78-74,92.35-37.06,14.24-84.71,9.22-114-19-3.7-3.57-22.85-22.67-28-51-2.77-15.27-5.25-28.92-4.78-41.76A88.43,88.43,0,0,0,205,314.5l-42,16c-10.61,2-22,4.64-34,8-11.14,3.12-21.49,6.52-31,10l-30,12-21,14a72.6,72.6,0,0,1-12,15c-6,5.68-8.93,6.43-12.39,12-2.69,4.29-2.16,5.82-5.61,13-2.9,6.07-3.9,6.28-7,12,0,0-2.74,5.05-10,27H583A20.21,20.21,0,0,0,582,446.5Z"/><path class="cls-3" d="M238.5,328l22,32,29,22,23,6,3-4,4,4,29-2,24-23,17-23,16-18,5.23-11.52,2.32-5.11,8.25-25.08,6.3-13.38.9-1.91,5-47s3-48,2-49-6-15-5-16,1-23,1-23l-7-24-17-14-18,11s-12,1-13,1-15-11-16-12-18-11-18-11-18,3-19,3-11-10-11-10l-22-2s-26,5-29,5-21,18-21,18l-11,7-8,17,4,22-6,21-4,45,1.28,26.86L217.5,249l.15,6.5h0l.14,6.35,7.6,42.52.11.63Z"/><path class="cls-4" d="M211.5,183l-2,19,6,5,4-45,6-21-4-22,8-17,11-7s18-18,21-18,29-5,29-5l22,2s10,10,11,10,19-3,19-3,17,10,18,11,15,12,16,12,13-1,13-1l18-11,17,14,7,24s0,22-1,23,4,15,5,16-2,49-2,49h6l3-33,5.36-.35L448,183a119.78,119.78,0,0,1,4.49-23c1.77-5.88,3-8.19,4-13a54.63,54.63,0,0,0-.35-23.44A55.71,55.71,0,0,0,452.5,95a97.25,97.25,0,0,1-3-26l-10-22-17-18a17.8,17.8,0,0,0-14.79-8.57S394.17,11.22,378.5,9C367.92,7.5,363.4,10.18,356,6.41A36.55,36.55,0,0,0,347.5,3a34.29,34.29,0,0,0-10-1l-6-2a59,59,0,0,1-10,3,59.58,59.58,0,0,1-17,1l-27,10c-5.09,4.5-7.68,6.78-10,8a23.78,23.78,0,0,1-9.25,2.58A52.29,52.29,0,0,0,229,55.52,112.08,112.08,0,0,0,218.5,69a113.93,113.93,0,0,0-11,21,111.8,111.8,0,0,0-5,22c-.37,3.06-.58,6-1,12-.5,7.13-.81,13-1,17l3.24,27.91.09.09,5.67,6Z"/><path class="cls-1" d="M224,348.5c5.15,28.33,24.3,47.43,28,51,29.29,28.22,76.94,33.24,114,19,37.44-14.38,75.64-52.88,74-92.35h0c-.28-.21-.57-.42-.88-.63l-.12-.08-.84-.58-.36-.23-.67-.44L436,323.5c-5.6-3.36-8.94-4-15-7a74.62,74.62,0,0,1-10-6l-.27,0L405.5,322l-16,18-17,23-24,23-29,2-4-4-3,4-23-6-29-22-22-32-13-23-.11-.63-.39.13c-1,.35-2,.71-3,1.09s-1.9.76-2.81,1.15h0C218.75,319.58,221.23,333.23,224,348.5Z"/></g></g></svg>