<svg xmlns="http://www.w3.org/2000/svg" xmlns:xlink="http://www.w3.org/1999/xlink" viewBox="0 0 518.91 477.12"><defs><style>.cls-1{fill:none;}.cls-2{isolation:isolate;}.cls-3{clip-path:url(#clip-path);}.cls-4{fill:#c8c2c2;}.cls-5{fill:#141414;}.cls-6{fill:#e3e0e0;}.cls-7{fill:#3b3333;}</style><clipPath id="clip-path" transform="translate(0 -31.46)"><polygon class="cls-1" points="0 508.58 0.81 72.93 519.71 0 518.9 435.66 0 508.58"/></clipPath></defs><title>logo</title><g id="Layer_2" data-name="Layer 2"><g id="Layer_1-2" data-name="Layer 1"><g class="cls-2"><g class="cls-3"><polyline class="cls-4" points="181.93 178.32 181.64 178.36 177.38 179.98 174.88 193.24 176.07 211.32 180.2 225.15 182.09 239.64 184.76 254.4 192.17 253.72 194.07 259.69 193.34 239 192.25 213.37 186.91 209.31 188.73 190.81 186.96 183.37 181.93 178.32"/><path class="cls-4" d="M399.23,192.71c0,.52-.09,1-.13,1.57l-4.77,1-2.73,32.08-5.34.75-4.53,45.77-.81,1.95,9.71-4.16,3.88-12.49-.28-10.1,7.3-19.07,1.16-11.31,3.24-9.72,1.84-11.27-.78-4.49-3.76-.88-4,.36" transform="translate(0 -31.46)"/><path class="cls-5" d="M195.38,340.18a93.17,93.17,0,0,0-12.67,9.23L145.3,370c-9.45,3.28-19.59,7.21-30.27,11.94-9.93,4.39-19.14,8.95-27.62,13.48q-13.35,7.65-26.72,15.28L42,426.81a85,85,0,0,1-10.71,15.91c-5.33,6.21-8,7.29-11,13-2.41,4.45-1.93,5.86-5,13.22-2.59,6.19-3.48,6.53-6.24,12.4,0,0-2.46,5.2-9,27.19l518.9-72.92a19.8,19.8,0,0,0-.88-6.6,16.4,16.4,0,0,0-5.32-7.9,16.45,16.45,0,0,0-.88-8.52,12.77,12.77,0,0,0-6.21-6.81q-5.33-5-10.66-10l-31.12-12.92c-4.25-3.47-9-7-14.21-10.49q-6-3.93-11.56-7a33.94,33.94,0,0,0-9.78-7.27c-2.84-1.38-5.25-2-9.77-4.38-2.32-1.22-4.15-2.33-5.34-3.1-3.26-1.46-12.58-9-14.22-11.44-1.48-2.2-3-4.23-4.43-6.1-.7-.54-1.58-1.18-2.66-1.89,0,.74,0,1.48,0,2.22,0,37.12-33.38,77.62-66.08,95.76a109.73,109.73,0,0,1-37.53,12.67l-.2,0h0l-.55.08c-23,3.1-46-1.7-62.57-16.26l-.58-.51a81.55,81.55,0,0,1-24.83-45.5c-2.25-13.2-4.28-25.12-4.24-36.6q0-1.45.06-2.91" transform="translate(0 -31.46)"/><path class="cls-6" d="M259.24,105.76s-23.15,8-25.82,8.42S214.7,134.1,214.7,134.1l-9.81,8.1-7.14,17.33,3.52,20.64-5.38,20.93-3.64,43.72,1.09,25.64.61,14.47.12,6.22.12,6.08,6.69,39.9.09.59,11.53,20.46,19.53,28,25.77,17.5,20.46,2.89,2.68-4.22,3.55,3.34,25.82-5.54,21.39-25.1,15.18-24.22,14.27-19.29,4.68-11.73,2.07-5.2,7.38-25.12,5.64-13.65.81-1.95,4.53-45.77s2-34.33,2-44.51a9.67,9.67,0,0,0-.18-2.81c-.81-.76-4.57-11.54-4.53-14.22a.82.82,0,0,1,.12-.52c.83-1,.92-19.66.93-22v-.23h0l-6.19-22.17-15.11-11.33-16,12.82s-10.68,2.46-11.57,2.58-13.33-8.69-14.22-9.52-16-8.31-16-8.31-16,5.13-16.92,5.25-9.77-8.23-9.77-8.23l-19.58.84" transform="translate(0 -31.46)"/><path class="cls-7" d="M295.87,31.46A58.79,58.79,0,0,1,287,35.59a52.87,52.87,0,0,1-10.64,2.66c-1.64.23-3.14.36-4.49.43l-24,13c-4.54,5-6.86,7.48-8.92,8.94a22.84,22.84,0,0,1-8.24,3.63A58,58,0,0,0,213,80.56a60.77,60.77,0,0,0-8.47,17,132.13,132.13,0,0,0-19.21,35.82,124.75,124.75,0,0,0-4.5,21.76c-.32,3-.52,5.87-.91,11.65-.46,6.91-.74,12.59-.92,16.46q1.43,13.2,2.84,26.4l.08.08,5,5.05,1.77,7.44-1.81,18.5,5.33,4,3.64-43.72,5.38-20.93-3.52-20.64,7.14-17.33,9.81-8.1s16.06-19.54,18.72-19.92,25.82-8.42,25.82-8.42l19.58-.84s8.88,8.36,9.77,8.23,16.92-5.25,16.92-5.25,15.11,7.48,16,8.31,13.33,9.65,14.22,9.52,11.57-2.58,11.57-2.58l16-12.82,15.11,11.33,6.19,22.17h0v.23c0,2.33-.1,21-.93,22a.82.82,0,0,0-.12.52c0,2.68,3.72,13.46,4.53,14.22a9.67,9.67,0,0,1,.18,2.81c0,10.18-2,44.51-2,44.51l5.34-.75,2.73-32.08,4.77-1c0-.53.09-1.05.13-1.57a133.88,133.88,0,0,1,4-22.68c1.59-5.87,2.68-8.24,3.59-13a56.11,56.11,0,0,0-.27-22.47,59.05,59.05,0,0,0,.33-11.16,52.69,52.69,0,0,0-3.53-15.83,89.43,89.43,0,0,1-1.76-9.35A98.5,98.5,0,0,1,400.77,83L391.91,63.1l-15.1-15.17a13.34,13.34,0,0,0-13.16-6.38s-12-7.16-26-7.32a42.35,42.35,0,0,0-6.7.46c-.84.11-1.62.24-2.38.36s-1.48.24-2.19.34a15.51,15.51,0,0,1-8.78-.83,26.62,26.62,0,0,0-7.53-2.22,27.94,27.94,0,0,0-7.48,0l-1.42.24-5.33-1.17" transform="translate(0 -31.46)"/><path class="cls-4" d="M200.88,337.13l-.35.17c-.9.46-1.78.94-2.63,1.41s-1.69,1-2.51,1.46h0q0,1.45-.06,2.91c0,11.48,2,23.4,4.24,36.6a81.55,81.55,0,0,0,24.83,45.5l.58.51c16.56,14.56,39.58,19.36,62.57,16.26l.55-.08h0l.2,0a109.73,109.73,0,0,0,37.53-12.67c32.7-18.14,66.09-58.64,66.08-95.76,0-.74,0-1.48,0-2.22h0c-.26-.16-.51-.33-.79-.49l-.11-.06c-.24-.16-.49-.3-.74-.45a3.37,3.37,0,0,1-.32-.19l-.6-.33c-.32-.18-.65-.35-1-.52-5-2.53-8-2.71-13.34-4.85a54.9,54.9,0,0,1-8.89-4.51h-.24l-4.68,11.73-14.27,19.29L331.7,375.05l-21.39,25.1-25.82,5.54-3.55-3.34-2.68,4.22-20.46-2.89L232,386.18l-19.53-28L201,337.72l-.09-.59" transform="translate(0 -31.46)"/></g></g></g></g></svg>